<?xml version="1.0" encoding="UTF-8"?>
<!DOCTYPE svg PUBLIC "-//W3C//DTD SVG 1.1//EN" "http://www.w3.org/Graphics/SVG/1.1/DTD/svg11.dtd">
<svg xmlns="http://www.w3.org/2000/svg" version="1.1" width="256px" height="256px" style="shape-rendering:geometricPrecision; text-rendering:geometricPrecision; image-rendering:optimizeQuality; fill-rule:evenodd; clip-rule:evenodd" xmlns:xlink="http://www.w3.org/1999/xlink">
<g><path style="opacity:1" fill="#222322" d="M 215.5,23.5 C 183.5,23.5 151.5,23.5 119.5,23.5C 98.1667,23.5 76.8333,23.5 55.5,23.5C 55.5,18.1667 55.5,12.8333 55.5,7.5C 108.833,7.5 162.167,7.5 215.5,7.5C 215.5,12.8333 215.5,18.1667 215.5,23.5 Z"/></g>
<g><path style="opacity:1" fill="#222322" d="M 55.5,23.5 C 55.5,28.8333 55.5,34.1667 55.5,39.5C 50.1667,39.5 44.8333,39.5 39.5,39.5C 39.5,34.1667 39.5,28.8333 39.5,23.5C 44.8333,23.5 50.1667,23.5 55.5,23.5 Z"/></g>
<g><path style="opacity:1" fill="#46912b" d="M 55.5,23.5 C 76.8333,23.5 98.1667,23.5 119.5,23.5C 119.5,28.8333 119.5,34.1667 119.5,39.5C 108.833,39.5 98.1667,39.5 87.5,39.5C 87.5,55.5 87.5,71.5 87.5,87.5C 124.833,87.5 162.167,87.5 199.5,87.5C 199.5,92.8333 199.5,98.1667 199.5,103.5C 167.5,103.5 135.5,103.5 103.5,103.5C 103.5,108.833 103.5,114.167 103.5,119.5C 114.167,119.5 124.833,119.5 135.5,119.5C 135.5,124.833 135.5,130.167 135.5,135.5C 140.833,135.5 146.167,135.5 151.5,135.5C 156.833,135.5 162.167,135.5 167.5,135.5C 167.5,140.833 167.5,146.167 167.5,151.5C 172.833,151.5 178.167,151.5 183.5,151.5C 183.5,146.167 183.5,140.833 183.5,135.5C 188.833,135.5 194.167,135.5 199.5,135.5C 199.5,140.833 199.5,146.167 199.5,151.5C 204.833,151.5 210.167,151.5 215.5,151.5C 215.5,156.833 215.5,162.167 215.5,167.5C 167.5,167.5 119.5,167.5 71.5,167.5C 71.5,124.833 71.5,82.1667 71.5,39.5C 66.1667,39.5 60.8333,39.5 55.5,39.5C 55.5,34.1667 55.5,28.8333 55.5,23.5 Z"/></g>
<g><path style="opacity:1" fill="#98d170" d="M 119.5,23.5 C 151.5,23.5 183.5,23.5 215.5,23.5C 215.5,66.1667 215.5,108.833 215.5,151.5C 210.167,151.5 204.833,151.5 199.5,151.5C 199.5,146.167 199.5,140.833 199.5,135.5C 199.5,130.167 199.5,124.833 199.5,119.5C 194.167,119.5 188.833,119.5 183.5,119.5C 183.5,124.833 183.5,130.167 183.5,135.5C 183.5,140.833 183.5,146.167 183.5,151.5C 178.167,151.5 172.833,151.5 167.5,151.5C 167.5,146.167 167.5,140.833 167.5,135.5C 162.167,135.5 156.833,135.5 151.5,135.5C 146.167,135.5 140.833,135.5 135.5,135.5C 135.5,130.167 135.5,124.833 135.5,119.5C 124.833,119.5 114.167,119.5 103.5,119.5C 103.5,114.167 103.5,108.833 103.5,103.5C 135.5,103.5 167.5,103.5 199.5,103.5C 199.5,98.1667 199.5,92.8333 199.5,87.5C 199.5,71.5 199.5,55.5 199.5,39.5C 172.833,39.5 146.167,39.5 119.5,39.5C 119.5,34.1667 119.5,28.8333 119.5,23.5 Z"/></g>
<g><path style="opacity:1" fill="#222322" d="M 215.5,23.5 C 220.833,23.5 226.167,23.5 231.5,23.5C 231.5,92.8333 231.5,162.167 231.5,231.5C 226.167,231.5 220.833,231.5 215.5,231.5C 215.5,226.167 215.5,220.833 215.5,215.5C 215.5,210.167 215.5,204.833 215.5,199.5C 215.5,194.167 215.5,188.833 215.5,183.5C 167.5,183.5 119.5,183.5 71.5,183.5C 71.5,178.167 71.5,172.833 71.5,167.5C 119.5,167.5 167.5,167.5 215.5,167.5C 215.5,162.167 215.5,156.833 215.5,151.5C 215.5,108.833 215.5,66.1667 215.5,23.5 Z"/></g>
<g><path style="opacity:1" fill="#222322" d="M 39.5,39.5 C 39.5,98.1667 39.5,156.833 39.5,215.5C 34.1667,215.5 28.8333,215.5 23.5,215.5C 23.5,156.833 23.5,98.1667 23.5,39.5C 28.8333,39.5 34.1667,39.5 39.5,39.5 Z"/></g>
<g><path style="opacity:1" fill="#46912b" d="M 39.5,39.5 C 44.8333,39.5 50.1667,39.5 55.5,39.5C 55.5,82.1667 55.5,124.833 55.5,167.5C 60.8333,167.5 66.1667,167.5 71.5,167.5C 71.5,172.833 71.5,178.167 71.5,183.5C 66.1667,183.5 60.8333,183.5 55.5,183.5C 55.5,194.167 55.5,204.833 55.5,215.5C 50.1667,215.5 44.8333,215.5 39.5,215.5C 39.5,156.833 39.5,98.1667 39.5,39.5 Z"/></g>
<g><path style="opacity:1" fill="#222322" d="M 55.5,39.5 C 60.8333,39.5 66.1667,39.5 71.5,39.5C 71.5,82.1667 71.5,124.833 71.5,167.5C 66.1667,167.5 60.8333,167.5 55.5,167.5C 55.5,124.833 55.5,82.1667 55.5,39.5 Z"/></g>
<g><path style="opacity:1" fill="#b88919" d="M 119.5,39.5 C 146.167,39.5 172.833,39.5 199.5,39.5C 199.5,55.5 199.5,71.5 199.5,87.5C 162.167,87.5 124.833,87.5 87.5,87.5C 87.5,71.5 87.5,55.5 87.5,39.5C 98.1667,39.5 108.833,39.5 119.5,39.5 Z"/></g>
<g><path style="opacity:1" fill="#f7d134" d="M 135.5,55.5 C 151.5,55.5 167.5,55.5 183.5,55.5C 183.5,60.8333 183.5,66.1667 183.5,71.5C 167.5,71.5 151.5,71.5 135.5,71.5C 135.5,66.1667 135.5,60.8333 135.5,55.5 Z"/></g>
<g><path style="opacity:1" fill="#222322" d="M 103.5,119.5 C 103.5,124.833 103.5,130.167 103.5,135.5C 98.1667,135.5 92.8333,135.5 87.5,135.5C 87.5,130.167 87.5,124.833 87.5,119.5C 92.8333,119.5 98.1667,119.5 103.5,119.5 Z"/></g>
<g><path style="opacity:1" fill="#222322" d="M 135.5,119.5 C 140.833,119.5 146.167,119.5 151.5,119.5C 151.5,124.833 151.5,130.167 151.5,135.5C 151.5,130.167 151.5,124.833 151.5,119.5C 146.167,119.5 140.833,119.5 135.5,119.5 Z"/></g>
<g><path style="opacity:1" fill="#222322" d="M 199.5,135.5 C 194.167,135.5 188.833,135.5 183.5,135.5C 183.5,130.167 183.5,124.833 183.5,119.5C 188.833,119.5 194.167,119.5 199.5,119.5C 199.5,124.833 199.5,130.167 199.5,135.5 Z"/></g>
<g><path style="opacity:1" fill="#222322" d="M 71.5,183.5 C 71.5,188.833 71.5,194.167 71.5,199.5C 71.5,204.833 71.5,210.167 71.5,215.5C 66.1667,215.5 60.8333,215.5 55.5,215.5C 55.5,204.833 55.5,194.167 55.5,183.5C 60.8333,183.5 66.1667,183.5 71.5,183.5 Z"/></g>
<g><path style="opacity:1" fill="#f7d134" d="M 71.5,183.5 C 119.5,183.5 167.5,183.5 215.5,183.5C 215.5,188.833 215.5,194.167 215.5,199.5C 167.5,199.5 119.5,199.5 71.5,199.5C 71.5,194.167 71.5,188.833 71.5,183.5 Z"/></g>
<g><path style="opacity:1" fill="#f7f8f7" d="M 71.5,199.5 C 119.5,199.5 167.5,199.5 215.5,199.5C 215.5,204.833 215.5,210.167 215.5,215.5C 167.5,215.5 119.5,215.5 71.5,215.5C 71.5,210.167 71.5,204.833 71.5,199.5 Z"/></g>
<g><path style="opacity:1" fill="#222322" d="M 39.5,215.5 C 44.8333,215.5 50.1667,215.5 55.5,215.5C 55.5,220.833 55.5,226.167 55.5,231.5C 50.1667,231.5 44.8333,231.5 39.5,231.5C 39.5,226.167 39.5,220.833 39.5,215.5 Z"/></g>
<g><path style="opacity:1" fill="#46912b" d="M 55.5,215.5 C 60.8333,215.5 66.1667,215.5 71.5,215.5C 119.5,215.5 167.5,215.5 215.5,215.5C 215.5,220.833 215.5,226.167 215.5,231.5C 162.167,231.5 108.833,231.5 55.5,231.5C 55.5,226.167 55.5,220.833 55.5,215.5 Z"/></g>
<g><path style="opacity:1" fill="#222322" d="M 55.5,231.5 C 108.833,231.5 162.167,231.5 215.5,231.5C 215.5,236.833 215.5,242.167 215.5,247.5C 162.167,247.5 108.833,247.5 55.5,247.5C 55.5,242.167 55.5,236.833 55.5,231.5 Z"/></g>
</svg>
