<?xml version="1.0" encoding="UTF-8"?>
<svg version="1.1" xmlns="http://www.w3.org/2000/svg" width="256" height="256">
<path d="M0 0 C52.8 0 105.6 0 160 0 C160 5.28 160 10.56 160 16 C165.28 16 170.56 16 176 16 C176 84.64 176 153.28 176 224 C170.72 224 165.44 224 160 224 C160 229.28 160 234.56 160 240 C107.2 240 54.4 240 0 240 C0 234.72 0 229.44 0 224 C-5.28 224 -10.56 224 -16 224 C-16 218.72 -16 213.44 -16 208 C-21.28 208 -26.56 208 -32 208 C-32 149.92 -32 91.84 -32 32 C-26.72 32 -21.44 32 -16 32 C-16 26.72 -16 21.44 -16 16 C-10.72 16 -5.44 16 0 16 C0 10.72 0 5.44 0 0 Z " fill="#46912C" transform="translate(56,8)"/>
<path d="M0 0 C52.8 0 105.6 0 160 0 C160 52.8 160 105.6 160 160 C112.48 160 64.96 160 16 160 C16 117.76 16 75.52 16 32 C5.44 32 -5.12 32 -16 32 C-16 26.72 -16 21.44 -16 16 C-10.72 16 -5.44 16 0 16 C0 10.72 0 5.44 0 0 Z " fill="#46912C" transform="translate(56,8)"/>
<path d="M0 0 C5.28 0 10.56 0 16 0 C16 68.64 16 137.28 16 208 C10.72 208 5.44 208 0 208 C0 192.16 0 176.32 0 160 C-47.52 160 -95.04 160 -144 160 C-144 154.72 -144 149.44 -144 144 C-96.48 144 -48.96 144 0 144 C0 96.48 0 48.96 0 0 Z " fill="#232323" transform="translate(216,24)"/>
<path d="M0 0 C31.68 0 63.36 0 96 0 C96 42.24 96 84.48 96 128 C90.72 128 85.44 128 80 128 C80 117.44 80 106.88 80 96 C74.72 96 69.44 96 64 96 C64 106.56 64 117.12 64 128 C58.72 128 53.44 128 48 128 C48 122.72 48 117.44 48 112 C42.72 112 37.44 112 32 112 C32 106.72 32 101.44 32 96 C16.16 96 0.32 96 -16 96 C-16 90.72 -16 85.44 -16 80 C15.68 80 47.36 80 80 80 C80 58.88 80 37.76 80 16 C53.6 16 27.2 16 0 16 C0 10.72 0 5.44 0 0 Z " fill="#99D171" transform="translate(120,24)"/>
<path d="M0 0 C36.96 0 73.92 0 112 0 C112 15.84 112 31.68 112 48 C75.04 48 38.08 48 0 48 C0 32.16 0 16.32 0 0 Z " fill="#B9891A" transform="translate(88,40)"/>
<path d="M0 0 C47.52 0 95.04 0 144 0 C144 10.56 144 21.12 144 32 C96.48 32 48.96 32 0 32 C0 21.44 0 10.88 0 0 Z " fill="#F8F8F8" transform="translate(72,184)"/>
<path d="M0 0 C5.28 0 10.56 0 16 0 C16 58.08 16 116.16 16 176 C10.72 176 5.44 176 0 176 C0 117.92 0 59.84 0 0 Z " fill="#232323" transform="translate(24,40)"/>
<path d="M0 0 C52.8 0 105.6 0 160 0 C160 5.28 160 10.56 160 16 C107.2 16 54.4 16 0 16 C0 10.72 0 5.44 0 0 Z " fill="#232323" transform="translate(56,232)"/>
<path d="M0 0 C52.8 0 105.6 0 160 0 C160 5.28 160 10.56 160 16 C107.2 16 54.4 16 0 16 C0 10.72 0 5.44 0 0 Z " fill="#46912C" transform="translate(56,216)"/>
<path d="M0 0 C52.8 0 105.6 0 160 0 C160 5.28 160 10.56 160 16 C107.2 16 54.4 16 0 16 C0 10.72 0 5.44 0 0 Z " fill="#232323" transform="translate(56,8)"/>
<path d="M0 0 C47.52 0 95.04 0 144 0 C144 5.28 144 10.56 144 16 C96.48 16 48.96 16 0 16 C0 10.72 0 5.44 0 0 Z " fill="#F8D135" transform="translate(72,184)"/>
<path d="M0 0 C5.28 0 10.56 0 16 0 C16 42.24 16 84.48 16 128 C10.72 128 5.44 128 0 128 C0 85.76 0 43.52 0 0 Z " fill="#232323" transform="translate(56,40)"/>
<path d="M0 0 C15.84 0 31.68 0 48 0 C48 5.28 48 10.56 48 16 C32.16 16 16.32 16 0 16 C0 10.72 0 5.44 0 0 Z " fill="#F8D135" transform="translate(136,56)"/>
<path d="M0 0 C5.28 0 10.56 0 16 0 C16 10.56 16 21.12 16 32 C10.72 32 5.44 32 0 32 C0 21.44 0 10.88 0 0 Z " fill="#232323" transform="translate(56,184)"/>
<path d="M0 0 C5.28 0 10.56 0 16 0 C16 5.28 16 10.56 16 16 C10.72 16 5.44 16 0 16 C0 10.72 0 5.44 0 0 Z " fill="#232323" transform="translate(40,216)"/>
<path d="M0 0 C5.28 0 10.56 0 16 0 C16 5.28 16 10.56 16 16 C10.72 16 5.44 16 0 16 C0 10.72 0 5.44 0 0 Z " fill="#232323" transform="translate(184,120)"/>
<path d="M0 0 C5.28 0 10.56 0 16 0 C16 5.28 16 10.56 16 16 C10.72 16 5.44 16 0 16 C0 10.72 0 5.44 0 0 Z " fill="#232323" transform="translate(136,120)"/>
<path d="M0 0 C5.28 0 10.56 0 16 0 C16 5.28 16 10.56 16 16 C10.72 16 5.44 16 0 16 C0 10.72 0 5.44 0 0 Z " fill="#232323" transform="translate(88,120)"/>
<path d="M0 0 C5.28 0 10.56 0 16 0 C16 5.28 16 10.56 16 16 C10.72 16 5.44 16 0 16 C0 10.72 0 5.44 0 0 Z " fill="#232323" transform="translate(40,24)"/>
</svg>
